<svg id="visual" viewBox="0 0 900 600" width="900" height="600" xmlns="http://www.w3.org/2000/svg" xmlns:xlink="http://www.w3.org/1999/xlink" version="1.1"><rect x="0" y="0" width="900" height="600" fill="#0e1011"></rect><path d="M431 600L422.7 588.8C414.3 577.7 397.7 555.3 404.7 533.2C411.7 511 442.3 489 473.8 466.8C505.3 444.7 537.7 422.3 510.8 400C484 377.7 398 355.3 366.8 333.2C335.7 311 359.3 289 416.8 266.8C474.3 244.7 565.7 222.3 556 200C546.3 177.7 435.7 155.3 421.5 133.2C407.3 111 489.7 89 500 66.8C510.3 44.7 448.7 22.3 417.8 11.2L387 0" fill="none" stroke-linecap="round" stroke-linejoin="miter" stroke="#565656" stroke-width="1"></path></svg>